<svg width="145" height="59" viewBox="0 0 145 59" fill="none" xmlns="http://www.w3.org/2000/svg">
<path d="M1.01976 22.7237L2.37944 8.55959L4.38496 7.16695L11.7952 9.17099L18.9675 7.16695L21.007 8.66149L21.7209 22.7916L18.5256 22.9614L17.8798 10.8353L13.2229 12.0921L13.2909 22.8256L10.1296 22.8935L10.0276 12.0581L5.40472 10.7674L4.215 22.9954L1.01976 22.7237Z" fill="white"/>
<path d="M41.6056 23.0973L40.9938 22.384L26.9551 24.6258L25.1195 22.6897L27.0911 14.9113L28.6207 13.6885H39.3622L38.6483 8.38975L26.4112 11.3788L25.6294 8.28785L39.6001 4.85723L41.5716 6.21589L43.4752 20.312L45.8546 20.9914L45.0048 24.0484L41.6056 23.0973ZM40.11 19.2591L39.8041 16.9154H29.8784L28.8247 21.0593L40.11 19.2591Z" fill="white"/>
<path d="M56.3135 20.0743L62.9759 21.9764L62.1262 25.0334L54.138 22.7916L52.9823 21.0933L53.8321 11.9562L47.1357 12.4318L46.8638 9.20495L54.138 8.69545L54.478 5.12896L57.6732 5.43466L57.4013 8.49165L65.0495 7.94819L65.2534 11.1071L57.0953 11.7185L56.3135 20.0743Z" fill="white"/>
<path d="M67.6188 22.0443L69.1824 7.09902L71.018 5.70639L81.9294 7.47265L81.4195 10.6315L72.2077 9.13702L70.984 20.38L82.3373 19.0213L82.7112 22.2142L69.3524 23.7766L67.6188 22.0443Z" fill="white"/>
<path d="M97.8517 8.83132L99.8232 10.224L101.013 23.5389L97.8177 23.8446L96.798 12.3299L89.7616 14.0282L88.3 24.0484L85.1047 23.6068L88.6399 0L91.7671 0.441566L90.2715 10.5976L97.8517 8.83132Z" fill="white"/>
<path d="M5.47271 55.8071L0 41.3713L3.02528 40.2844L7.00234 50.882L10.4695 42.5262L13.3928 42.4243L16.928 50.1687L21.6869 40.8279L24.5082 42.2545L18.3217 54.5843L15.4324 54.5504L12.0332 47.1457L8.464 55.8411L5.47271 55.8071Z" fill="white"/>
<path d="M42.3691 57.0639L41.7573 56.3506L27.7186 58.5924L25.883 56.6563L27.8546 48.878L29.3842 47.6552H40.1257L39.4118 42.3564L27.1747 45.3454L26.3929 42.2545L40.3636 38.8238L42.3351 40.1825L44.2387 54.2786L46.6181 54.958L45.7683 58.015L42.3691 57.0639ZM40.8735 53.2257L40.5675 50.882H30.6419L29.5881 55.0259L40.8735 53.2257Z" fill="white"/>
<path d="M57.077 54.0409L63.7394 55.943L62.8896 59L54.9015 56.7582L53.7458 55.0599L54.5956 45.9229L47.8992 46.3984L47.6273 43.1716L54.9015 42.6621L55.2415 39.0956L58.4367 39.4013L58.1648 42.4583L65.813 41.9148L66.0169 45.0737L57.8588 45.6851L57.077 54.0409Z" fill="white"/>
<path d="M68.3823 56.0109L69.9459 41.0656L71.7815 39.673L82.6929 41.4393L82.183 44.5982L72.9712 43.1036L71.7475 54.3466L83.1008 52.9879L83.4747 56.1808L70.1159 57.7432L68.3823 56.0109Z" fill="white"/>
<path d="M98.6152 42.7979L100.587 44.1906L101.776 57.5055L98.5812 57.8112L97.5614 46.2965L90.5251 47.9948L89.0635 58.015L85.8682 57.5734L89.4034 33.9666L92.5306 34.4082L91.035 44.5642L98.6152 42.7979Z" fill="white"/>
<path d="M116.738 45.9423L115.184 44.6806L112.222 37.0139L112.756 34.7818L119.409 29.4442L111.542 23.3302L111.494 20.2732L117.709 15.1297L119.312 14.7415L134.705 17.847L135.531 21.2922L125.625 29.3957L132.763 34.8789L139.076 24.0581L142.475 25.999L135.822 37.305L145 44.438L142.572 47.495L133.831 40.7017L130.238 46.9613L128.198 47.9317L116.738 45.9423ZM122.468 26.8724L129.849 20.904L119.457 18.769L115.864 21.7289L122.468 26.8724ZM127.518 43.8072L130.723 38.2755L122.565 31.9189L116.35 36.9654L118.486 42.2545L127.518 43.8072Z" fill="white"/>
</svg>
