<svg width="14" height="14" viewBox="0 0 14 14" fill="none" xmlns="http://www.w3.org/2000/svg">
<g clip-path="url(#clip0_180_349)">
<path fill-rule="evenodd" clip-rule="evenodd" d="M6.15683 4.18128C5.97783 4.06195 5.74768 4.05083 5.558 4.15234C5.36833 4.25385 5.24992 4.45152 5.24992 4.66665V9.33331C5.24992 9.54844 5.36833 9.74611 5.558 9.84762C5.74768 9.94914 5.97783 9.93801 6.15683 9.81868L9.65683 7.48534C9.81911 7.37715 9.91659 7.19502 9.91659 6.99998C9.91659 6.80494 9.81911 6.62281 9.65683 6.51462L6.15683 4.18128ZM8.28163 6.99998L6.41659 8.24335V5.75661L8.28163 6.99998Z" fill="white"/>
<path fill-rule="evenodd" clip-rule="evenodd" d="M6.99992 0.583313C3.45609 0.583313 0.583252 3.45615 0.583252 6.99998C0.583252 10.5438 3.45609 13.4166 6.99992 13.4166C10.5437 13.4166 13.4166 10.5438 13.4166 6.99998C13.4166 3.45615 10.5437 0.583313 6.99992 0.583313ZM1.74992 6.99998C1.74992 4.10048 4.10042 1.74998 6.99992 1.74998C9.89941 1.74998 12.2499 4.10048 12.2499 6.99998C12.2499 9.89948 9.89941 12.25 6.99992 12.25C4.10042 12.25 1.74992 9.89948 1.74992 6.99998Z" fill="white"/>
</g>
<defs>
<clipPath id="clip0_180_349">
<rect width="14" height="14" fill="white"/>
</clipPath>
</defs>
</svg>
