<svg width="14" height="14" viewBox="0 0 14 14" fill="none" xmlns="http://www.w3.org/2000/svg">
<g opacity="0.6" clip-path="url(#clip0_180_335)">
<g clip-path="url(#clip1_180_335)">
<path d="M-0.100098 11.6C-0.100129 11.8761 0.123704 12.1 0.399846 12.1C0.675989 12.1001 0.899871 11.8762 0.899902 11.6001L-0.100098 11.6ZM0.400138 9.49979L0.900138 9.49984L0.400138 9.49979ZM6.3499 7.90002C6.62604 7.90002 6.8499 7.67617 6.8499 7.40002C6.8499 7.12388 6.62604 6.90002 6.3499 6.90002V7.90002ZM11.5999 8.60002C11.876 8.60002 12.0999 8.37617 12.0999 8.10002C12.0999 7.82388 11.876 7.60002 11.5999 7.60002V8.60002ZM8.4499 7.60002C8.17376 7.60002 7.9499 7.82388 7.9499 8.10002C7.9499 8.37617 8.17376 8.60002 8.4499 8.60002V7.60002ZM9.5249 9.67494C9.5249 9.95108 9.74876 10.1749 10.0249 10.1749C10.301 10.1749 10.5249 9.95108 10.5249 9.67494H9.5249ZM10.5249 6.52494C10.5249 6.2488 10.301 6.02494 10.0249 6.02494C9.74876 6.02494 9.5249 6.2488 9.5249 6.52494H10.5249ZM6.8999 2.50002C6.8999 3.38368 6.18356 4.10002 5.2999 4.10002V5.10002C6.73584 5.10002 7.8999 3.93596 7.8999 2.50002H6.8999ZM5.2999 4.10002C4.41625 4.10002 3.6999 3.38368 3.6999 2.50002H2.6999C2.6999 3.93596 3.86396 5.10002 5.2999 5.10002V4.10002ZM3.6999 2.50002C3.6999 1.61637 4.41625 0.900024 5.2999 0.900024V-0.0999756C3.86396 -0.0999756 2.6999 1.06408 2.6999 2.50002H3.6999ZM5.2999 0.900024C6.18356 0.900024 6.8999 1.61637 6.8999 2.50002H7.8999C7.8999 1.06408 6.73584 -0.0999756 5.2999 -0.0999756V0.900024ZM0.899902 11.6001L0.900138 9.49984L-0.0998616 9.49973L-0.100098 11.6L0.899902 11.6001ZM2.50014 6.90002C1.06431 6.90002 -0.0997002 8.0639 -0.0998616 9.49973L0.900138 9.49984C0.900238 8.61626 1.61655 7.90002 2.50014 7.90002V6.90002ZM2.50014 7.90002H6.3499V6.90002H2.50014V7.90002ZM11.5999 7.60002H10.0249V8.60002H11.5999V7.60002ZM10.0249 7.60002H8.4499V8.60002H10.0249V7.60002ZM10.5249 9.67494V8.10002H9.5249V9.67494H10.5249ZM10.5249 8.10002V6.52494H9.5249V8.10002H10.5249Z" fill="white"/>
</g>
</g>
<defs>
<clipPath id="clip0_180_335">
<rect width="14" height="14" fill="white"/>
</clipPath>
<clipPath id="clip1_180_335">
<rect width="14" height="14" fill="white"/>
</clipPath>
</defs>
</svg>
